<svg width="1920" height="449" xmlns="http://www.w3.org/2000/svg"><g><path d="M-26,-26L-51,34L25,17Z" fill="#f9f7fb" stroke="#f9f7fb"/><path d="M-26,-26L25,17L39,-40Z" fill="#f8f6fa" stroke="#f8f6fa"/><path d="M39,-40L25,17L117,15Z" fill="#f5f4f9" stroke="#f5f4f9"/><path d="M39,-40L117,15L125,-49Z" fill="#f3f3f8" stroke="#f3f3f8"/><path d="M125,-49L117,15L156,-24Z" fill="#f1f1f7" stroke="#f1f1f7"/><path d="M125,-49L156,-24L235,-24Z" fill="#efeff6" stroke="#efeff6"/><path d="M125,-49L235,-24L303,-37Z" fill="#ededf5" stroke="#ededf5"/><path d="M125,-49L303,-37L460,-53Z" fill="#e9e9f3" stroke="#e9e9f3"/><path d="M156,-24L117,15L158,54Z" fill="#f0f0f7" stroke="#f0f0f7"/><path d="M156,-24L158,54L235,-24Z" fill="#efeef6" stroke="#efeef6"/><path d="M235,-24L158,54L261,26Z" fill="#ececf5" stroke="#ececf5"/><path d="M235,-24L261,26L303,-37Z" fill="#ebebf4" stroke="#ebebf4"/><path d="M303,-37L261,26L321,25Z" fill="#e9e9f3" stroke="#e9e9f3"/><path d="M303,-37L321,25L397,-22Z" fill="#e6e8f2" stroke="#e6e8f2"/><path d="M303,-37L397,-22L460,-53Z" fill="#e3e6f2" stroke="#e3e6f2"/><path d="M397,-22L321,25L398,25Z" fill="#e4e6f2" stroke="#e4e6f2"/><path d="M397,-22L398,25L452,28Z" fill="#e1e5f1" stroke="#e1e5f1"/><path d="M397,-22L452,28L460,-53Z" fill="#e0e5f1" stroke="#e0e5f1"/><path d="M460,-53L452,28L507,21Z" fill="#dee3f0" stroke="#dee3f0"/><path d="M460,-53L507,21L538,-35Z" fill="#dce3f0" stroke="#dce3f0"/><path d="M460,-53L538,-35L590,-39Z" fill="#dae2ef" stroke="#dae2ef"/><path d="M460,-53L590,-39L815,-39Z" fill="#d4dfee" stroke="#d4dfee"/><path d="M460,-53L815,-39L956,-45Z" fill="#cbdbeb" stroke="#cbdbeb"/><path d="M460,-53L956,-45L1079,-48Z" fill="#c4d8ea" stroke="#c4d8ea"/><path d="M460,-53L1079,-48L1645,-48Z" fill="#aed0e5" stroke="#aed0e5"/><path d="M538,-35L507,21L578,32Z" fill="#d9e1ef" stroke="#d9e1ef"/><path d="M538,-35L578,32L590,-39Z" fill="#d7e0ee" stroke="#d7e0ee"/><path d="M590,-39L578,32L648,-22Z" fill="#d5dfee" stroke="#d5dfee"/><path d="M590,-39L648,-22L815,-39Z" fill="#cfddec" stroke="#cfddec"/><path d="M648,-22L578,32L684,24Z" fill="#d2deed" stroke="#d2deed"/><path d="M648,-22L684,24L721,-15Z" fill="#cfddec" stroke="#cfddec"/><path d="M648,-22L721,-15L815,-39Z" fill="#ccdcec" stroke="#ccdcec"/><path d="M721,-15L684,24L730,45Z" fill="#ccdcec" stroke="#ccdcec"/><path d="M721,-15L730,45L798,38Z" fill="#c9daeb" stroke="#c9daeb"/><path d="M721,-15L798,38L815,-39Z" fill="#c8daeb" stroke="#c8daeb"/><path d="M815,-39L798,38L877,-24Z" fill="#c4d8ea" stroke="#c4d8ea"/><path d="M815,-39L877,-24L956,-45Z" fill="#c0d7e9" stroke="#c0d7e9"/><path d="M877,-24L798,38L887,19Z" fill="#c2d7e9" stroke="#c2d7e9"/><path d="M877,-24L887,19L944,20Z" fill="#bed6e8" stroke="#bed6e8"/><path d="M877,-24L944,20L956,-45Z" fill="#bcd5e8" stroke="#bcd5e8"/><path d="M956,-45L944,20L996,-21Z" fill="#b9d4e7" stroke="#b9d4e7"/><path d="M956,-45L996,-21L1079,-48Z" fill="#b4d2e6" stroke="#b4d2e6"/><path d="M996,-21L944,20L1012,15Z" fill="#b7d3e7" stroke="#b7d3e7"/><path d="M996,-21L1012,15L1079,-48Z" fill="#b2d1e5" stroke="#b2d1e5"/><path d="M1079,-48L1012,15L1069,25Z" fill="#afd0e5" stroke="#afd0e5"/><path d="M1079,-48L1069,25L1145,-16Z" fill="#aacee4" stroke="#aacee4"/><path d="M1079,-48L1145,-16L1208,-18Z" fill="#a5cce2" stroke="#a5cce2"/><path d="M1079,-48L1208,-18L1292,-45Z" fill="#9fcae1" stroke="#9fcae1"/><path d="M1079,-48L1292,-45L1645,-48Z" fill="#92c1da" stroke="#92c1da"/><path d="M1145,-16L1069,25L1156,24Z" fill="#a7cce3" stroke="#a7cce3"/><path d="M1145,-16L1156,24L1208,-18Z" fill="#a2cbe2" stroke="#a2cbe2"/><path d="M1208,-18L1156,24L1221,36Z" fill="#9ec9e1" stroke="#9ec9e1"/><path d="M1208,-18L1221,36L1291,25Z" fill="#99c7e0" stroke="#99c7e0"/><path d="M1208,-18L1291,25L1292,-45Z" fill="#97c6df" stroke="#97c6df"/><path d="M1292,-45L1291,25L1377,-38Z" fill="#93c3dc" stroke="#93c3dc"/><path d="M1292,-45L1377,-38L1645,-48Z" fill="#8cb9d3" stroke="#8cb9d3"/><path d="M1377,-38L1291,25L1379,43Z" fill="#91c0d9" stroke="#91c0d9"/><path d="M1377,-38L1379,43L1428,22Z" fill="#8ebcd6" stroke="#8ebcd6"/><path d="M1377,-38L1428,22L1453,-17Z" fill="#8dbbd4" stroke="#8dbbd4"/><path d="M1377,-38L1453,-17L1498,-24Z" fill="#8bb9d2" stroke="#8bb9d2"/><path d="M1377,-38L1498,-24L1645,-48Z" fill="#87b4cd" stroke="#87b4cd"/><path d="M1453,-17L1428,22L1501,43Z" fill="#8ab7d1" stroke="#8ab7d1"/><path d="M1453,-17L1501,43L1498,-24Z" fill="#89b6cf" stroke="#89b6cf"/><path d="M1498,-24L1501,43L1557,-25Z" fill="#87b3cc" stroke="#87b3cc"/><path d="M1498,-24L1557,-25L1645,-48Z" fill="#84afc9" stroke="#84afc9"/><path d="M1557,-25L1501,43L1563,54Z" fill="#84b0cb" stroke="#84b0cb"/><path d="M1557,-25L1563,54L1650,54Z" fill="#81adc7" stroke="#81adc7"/><path d="M1557,-25L1650,54L1645,-48Z" fill="#81abc5" stroke="#81abc5"/><path d="M1645,-48L1650,54L1713,34Z" fill="#7fa7c1" stroke="#7fa7c1"/><path d="M1645,-48L1713,34L1721,-37Z" fill="#80a5bf" stroke="#80a5bf"/><path d="M1645,-48L1721,-37L1847,-41Z" fill="#80a2bc" stroke="#80a2bc"/><path d="M1721,-37L1713,34L1796,-29Z" fill="#80a2bb" stroke="#80a2bb"/><path d="M1721,-37L1796,-29L1847,-41Z" fill="#809eb8" stroke="#809eb8"/><path d="M1796,-29L1713,34L1794,55Z" fill="#7f9fb9" stroke="#7f9fb9"/><path d="M1796,-29L1794,55L1854,50Z" fill="#7f9bb6" stroke="#7f9bb6"/><path d="M1796,-29L1854,50L1847,-41Z" fill="#809bb4" stroke="#809bb4"/><path d="M1847,-41L1854,50L1920,26Z" fill="#7f97b1" stroke="#7f97b1"/><path d="M1847,-41L1920,26L1921,-25Z" fill="#8096b0" stroke="#8096b0"/><path d="M1847,-41L1921,-25L1977,-22Z" fill="#8094ae" stroke="#8094ae"/><path d="M1921,-25L1920,26L1977,-22Z" fill="#8092ac" stroke="#8092ac"/><path d="M1977,-22L1920,26L2007,53Z" fill="#7f8faa" stroke="#7f8faa"/><path d="M-51,34L-55,373L-51,112Z" fill="#d5e7fb" stroke="#d5e7fb"/><path d="M-51,34L-51,112L25,115Z" fill="#f2f3fb" stroke="#f2f3fb"/><path d="M-51,34L25,115L25,17Z" fill="#f6f5fb" stroke="#f6f5fb"/><path d="M25,17L25,115L120,107Z" fill="#f0f0f9" stroke="#f0f0f9"/><path d="M25,17L120,107L117,15Z" fill="#f2f1f9" stroke="#f2f1f9"/><path d="M117,15L120,107L158,54Z" fill="#efeef7" stroke="#efeef7"/><path d="M158,54L120,107L192,118Z" fill="#e7eaf7" stroke="#e7eaf7"/><path d="M158,54L192,118L237,105Z" fill="#e5e8f6" stroke="#e5e8f6"/><path d="M158,54L237,105L261,26Z" fill="#eaeaf5" stroke="#eaeaf5"/><path d="M261,26L237,105L296,92Z" fill="#e7e8f4" stroke="#e7e8f4"/><path d="M261,26L296,92L321,25Z" fill="#e7e7f3" stroke="#e7e7f3"/><path d="M321,25L296,92L396,93Z" fill="#e3e5f2" stroke="#e3e5f2"/><path d="M321,25L396,93L398,25Z" fill="#e2e5f2" stroke="#e2e5f2"/><path d="M398,25L396,93L452,28Z" fill="#dfe3f1" stroke="#dfe3f1"/><path d="M452,28L396,93L463,122Z" fill="#dbe1f1" stroke="#dbe1f1"/><path d="M452,28L463,122L507,21Z" fill="#dbe1f0" stroke="#dbe1f0"/><path d="M507,21L463,122L543,96Z" fill="#d7def0" stroke="#d7def0"/><path d="M507,21L543,96L578,32Z" fill="#d7dfef" stroke="#d7dfef"/><path d="M578,32L543,96L582,95Z" fill="#d4deee" stroke="#d4deee"/><path d="M578,32L582,95L657,85Z" fill="#d2dcee" stroke="#d2dcee"/><path d="M578,32L657,85L684,24Z" fill="#d1dced" stroke="#d1dced"/><path d="M684,24L657,85L730,45Z" fill="#ccdbec" stroke="#ccdbec"/><path d="M730,45L657,85L735,109Z" fill="#c8d8ec" stroke="#c8d8ec"/><path d="M730,45L735,109L807,90Z" fill="#c4d7eb" stroke="#c4d7eb"/><path d="M730,45L807,90L798,38Z" fill="#c5d7eb" stroke="#c5d7eb"/><path d="M798,38L807,90L887,19Z" fill="#c1d6ea" stroke="#c1d6ea"/><path d="M887,19L807,90L889,105Z" fill="#bed4e9" stroke="#bed4e9"/><path d="M887,19L889,105L944,20Z" fill="#bcd4e8" stroke="#bcd4e8"/><path d="M944,20L889,105L962,116Z" fill="#b6d1e8" stroke="#b6d1e8"/><path d="M944,20L962,116L1008,101Z" fill="#b3d0e7" stroke="#b3d0e7"/><path d="M944,20L1008,101L1012,15Z" fill="#b5d1e7" stroke="#b5d1e7"/><path d="M1012,15L1008,101L1069,25Z" fill="#b0cfe5" stroke="#b0cfe5"/><path d="M1069,25L1008,101L1072,100Z" fill="#accde5" stroke="#accde5"/><path d="M1069,25L1072,100L1156,24Z" fill="#a7cce4" stroke="#a7cce4"/><path d="M1156,24L1072,100L1148,109Z" fill="#a2c9e3" stroke="#a2c9e3"/><path d="M1156,24L1148,109L1221,36Z" fill="#9fc8e2" stroke="#9fc8e2"/><path d="M1221,36L1148,109L1242,91Z" fill="#99c6e1" stroke="#99c6e1"/><path d="M1221,36L1242,91L1281,88Z" fill="#95c4e0" stroke="#95c4e0"/><path d="M1221,36L1281,88L1291,25Z" fill="#95c4df" stroke="#95c4df"/><path d="M1291,25L1281,88L1379,43Z" fill="#90c1dc" stroke="#90c1dc"/><path d="M1379,43L1281,88L1383,110Z" fill="#8cbcda" stroke="#8cbcda"/><path d="M1379,43L1383,110L1441,104Z" fill="#87b8d5" stroke="#87b8d5"/><path d="M1379,43L1441,104L1428,22Z" fill="#8ab9d4" stroke="#8ab9d4"/><path d="M1428,22L1441,104L1501,43Z" fill="#88b5d1" stroke="#88b5d1"/><path d="M1501,43L1441,104L1496,115Z" fill="#82b1cf" stroke="#82b1cf"/><path d="M1501,43L1496,115L1563,54Z" fill="#83b0cc" stroke="#83b0cc"/><path d="M1563,54L1496,115L1577,101Z" fill="#7dacca" stroke="#7dacca"/><path d="M1563,54L1577,101L1650,54Z" fill="#7eaac7" stroke="#7eaac7"/><path d="M1650,54L1577,101L1626,119Z" fill="#78a6c5" stroke="#78a6c5"/><path d="M1650,54L1626,119L1723,115Z" fill="#75a1c1" stroke="#75a1c1"/><path d="M1650,54L1723,115L1713,34Z" fill="#7da3bf" stroke="#7da3bf"/><path d="M1713,34L1723,115L1794,55Z" fill="#7d9fbb" stroke="#7d9fbb"/><path d="M1794,55L1723,115L1774,121Z" fill="#7599ba" stroke="#7599ba"/><path d="M1794,55L1774,121L1851,86Z" fill="#7898b6" stroke="#7898b6"/><path d="M1794,55L1851,86L1854,50Z" fill="#7d98b4" stroke="#7d98b4"/><path d="M1854,50L1851,86L1909,119Z" fill="#7993b1" stroke="#7993b1"/><path d="M1854,50L1909,119L1920,26Z" fill="#7d93b0" stroke="#7d93b0"/><path d="M1920,26L1909,119L2007,53Z" fill="#7d8fac" stroke="#7d8fac"/><path d="M2007,53L1909,119L2013,108Z" fill="#7689a9" stroke="#7689a9"/><path d="M-51,112L-55,373L-50,330Z" fill="#a5d4f2" stroke="#a5d4f2"/><path d="M-51,112L-50,330L-36,252Z" fill="#bcdcf7" stroke="#bcdcf7"/><path d="M-51,112L-36,252L-31,177Z" fill="#d1e5fa" stroke="#d1e5fa"/><path d="M-51,112L-31,177L25,115Z" fill="#e2ebfb" stroke="#e2ebfb"/><path d="M25,115L-31,177L30,184Z" fill="#d8e6fa" stroke="#d8e6fa"/><path d="M25,115L30,184L103,177Z" fill="#d6e4f9" stroke="#d6e4f9"/><path d="M25,115L103,177L120,107Z" fill="#dde7f9" stroke="#dde7f9"/><path d="M120,107L103,177L188,169Z" fill="#d4e2f7" stroke="#d4e2f7"/><path d="M120,107L188,169L192,118Z" fill="#d9e3f7" stroke="#d9e3f7"/><path d="M192,118L188,169L257,158Z" fill="#d1def5" stroke="#d1def5"/><path d="M192,118L257,158L237,105Z" fill="#d7e1f5" stroke="#d7e1f5"/><path d="M237,105L257,158L296,92Z" fill="#d9e1f4" stroke="#d9e1f4"/><path d="M296,92L257,158L312,182Z" fill="#cfdcf4" stroke="#cfdcf4"/><path d="M296,92L312,182L386,170Z" fill="#cbd9f3" stroke="#cbd9f3"/><path d="M296,92L386,170L396,93Z" fill="#d3ddf2" stroke="#d3ddf2"/><path d="M396,93L386,170L463,122Z" fill="#ccdaf1" stroke="#ccdaf1"/><path d="M463,122L386,170L473,164Z" fill="#c2d5f1" stroke="#c2d5f1"/><path d="M463,122L473,164L519,179Z" fill="#bed3ef" stroke="#bed3ef"/><path d="M463,122L519,179L543,96Z" fill="#c5d6f0" stroke="#c5d6f0"/><path d="M543,96L519,179L591,159Z" fill="#bed3ef" stroke="#bed3ef"/><path d="M543,96L591,159L582,95Z" fill="#c6d7ee" stroke="#c6d7ee"/><path d="M582,95L591,159L657,85Z" fill="#c4d6ee" stroke="#c4d6ee"/><path d="M657,85L591,159L671,166Z" fill="#bbd1ed" stroke="#bbd1ed"/><path d="M657,85L671,166L735,109Z" fill="#bdd3ec" stroke="#bdd3ec"/><path d="M735,109L671,166L733,182Z" fill="#b0ccec" stroke="#b0ccec"/><path d="M735,109L733,182L793,159Z" fill="#adcceb" stroke="#adcceb"/><path d="M735,109L793,159L807,90Z" fill="#b5d0eb" stroke="#b5d0eb"/><path d="M807,90L793,159L871,159Z" fill="#acccea" stroke="#acccea"/><path d="M807,90L871,159L889,105Z" fill="#b0cee9" stroke="#b0cee9"/><path d="M889,105L871,159L962,116Z" fill="#a9cae8" stroke="#a9cae8"/><path d="M962,116L871,159L964,178Z" fill="#9fc6e8" stroke="#9fc6e8"/><path d="M962,116L964,178L1010,157Z" fill="#9bc4e7" stroke="#9bc4e7"/><path d="M962,116L1010,157L1008,101Z" fill="#a2c8e6" stroke="#a2c8e6"/><path d="M1008,101L1010,157L1072,100Z" fill="#9fc7e5" stroke="#9fc7e5"/><path d="M1072,100L1010,157L1103,160Z" fill="#95c2e5" stroke="#95c2e5"/><path d="M1072,100L1103,160L1148,109Z" fill="#95c3e3" stroke="#95c3e3"/><path d="M1148,109L1103,160L1173,188Z" fill="#88bde2" stroke="#88bde2"/><path d="M1148,109L1173,188L1221,182Z" fill="#80bae1" stroke="#80bae1"/><path d="M1148,109L1221,182L1242,91Z" fill="#89bee1" stroke="#89bee1"/><path d="M1242,91L1221,182L1304,157Z" fill="#7eb9df" stroke="#7eb9df"/><path d="M1242,91L1304,157L1281,88Z" fill="#86bddf" stroke="#86bddf"/><path d="M1281,88L1304,157L1383,110Z" fill="#81b8db" stroke="#81b8db"/><path d="M1383,110L1304,157L1358,178Z" fill="#75b1da" stroke="#75b1da"/><path d="M1383,110L1358,178L1416,184Z" fill="#6fadd6" stroke="#6fadd6"/><path d="M1383,110L1416,184L1441,104Z" fill="#76afd5" stroke="#76afd5"/><path d="M1441,104L1416,184L1492,193Z" fill="#6aa8d1" stroke="#6aa8d1"/><path d="M1441,104L1492,193L1496,115Z" fill="#71a9d0" stroke="#71a9d0"/><path d="M1496,115L1492,193L1590,163Z" fill="#67a3cb" stroke="#67a3cb"/><path d="M1496,115L1590,163L1577,101Z" fill="#70a5ca" stroke="#70a5ca"/><path d="M1577,101L1590,163L1626,119Z" fill="#6da1c6" stroke="#6da1c6"/><path d="M1626,119L1590,163L1635,182Z" fill="#629bc4" stroke="#629bc4"/><path d="M1626,119L1635,182L1710,171Z" fill="#6098c1" stroke="#6098c1"/><path d="M1626,119L1710,171L1723,115Z" fill="#689ac0" stroke="#689ac0"/><path d="M1723,115L1710,171L1774,121Z" fill="#6895bc" stroke="#6895bc"/><path d="M1774,121L1710,171L1796,184Z" fill="#6090ba" stroke="#6090ba"/><path d="M1774,121L1796,184L1870,172Z" fill="#608cb5" stroke="#608cb5"/><path d="M1774,121L1870,172L1851,86Z" fill="#6b8fb5" stroke="#6b8fb5"/><path d="M1851,86L1870,172L1909,119Z" fill="#6b8cb1" stroke="#6b8cb1"/><path d="M1909,119L1870,172L1917,178Z" fill="#6185af" stroke="#6185af"/><path d="M1909,119L1917,178L2001,172Z" fill="#6182ac" stroke="#6182ac"/><path d="M1909,119L2001,172L2013,108Z" fill="#6983aa" stroke="#6983aa"/><path d="M2013,108L2001,172L2011,234Z" fill="#5b7aa6" stroke="#5b7aa6"/><path d="M2013,108L2011,234L2009,472Z" fill="#2a679c" stroke="#2a679c"/><path d="M-31,177L-36,252L30,184Z" fill="#c6dff8" stroke="#c6dff8"/><path d="M30,184L-36,252L42,232Z" fill="#bedcf6" stroke="#bedcf6"/><path d="M30,184L42,232L103,177Z" fill="#c6def7" stroke="#c6def7"/><path d="M103,177L42,232L118,262Z" fill="#bad8f5" stroke="#bad8f5"/><path d="M103,177L118,262L180,230Z" fill="#b7d6f3" stroke="#b7d6f3"/><path d="M103,177L180,230L188,169Z" fill="#c3daf4" stroke="#c3daf4"/><path d="M188,169L180,230L230,235Z" fill="#b9d5f2" stroke="#b9d5f2"/><path d="M188,169L230,235L257,158Z" fill="#c1d8f3" stroke="#c1d8f3"/><path d="M257,158L230,235L299,243Z" fill="#b5d2f1" stroke="#b5d2f1"/><path d="M257,158L299,243L312,182Z" fill="#bbd4f1" stroke="#bbd4f1"/><path d="M312,182L299,243L374,242Z" fill="#aecdef" stroke="#aecdef"/><path d="M312,182L374,242L386,170Z" fill="#b5d0f0" stroke="#b5d0f0"/><path d="M386,170L374,242L464,234Z" fill="#abccee" stroke="#abccee"/><path d="M386,170L464,234L473,164Z" fill="#b3cfef" stroke="#b3cfef"/><path d="M473,164L464,234L519,179Z" fill="#afcded" stroke="#afcded"/><path d="M519,179L464,234L532,254Z" fill="#a2c8ec" stroke="#a2c8ec"/><path d="M519,179L532,254L582,229Z" fill="#a0c7eb" stroke="#a0c7eb"/><path d="M519,179L582,229L591,159Z" fill="#abcbed" stroke="#abcbed"/><path d="M591,159L582,229L671,166Z" fill="#aacbec" stroke="#aacbec"/><path d="M671,166L582,229L659,261Z" fill="#9bc4ea" stroke="#9bc4ea"/><path d="M671,166L659,261L733,182Z" fill="#9dc5e9" stroke="#9dc5e9"/><path d="M733,182L659,261L737,252Z" fill="#8fc0e7" stroke="#8fc0e7"/><path d="M733,182L737,252L813,251Z" fill="#8dbee6" stroke="#8dbee6"/><path d="M733,182L813,251L793,159Z" fill="#98c3e8" stroke="#98c3e8"/><path d="M793,159L813,251L871,159Z" fill="#98c3e8" stroke="#98c3e8"/><path d="M871,159L813,251L881,250Z" fill="#89bde5" stroke="#89bde5"/><path d="M871,159L881,250L929,231Z" fill="#89bde5" stroke="#89bde5"/><path d="M871,159L929,231L964,178Z" fill="#90c0e6" stroke="#90c0e6"/><path d="M964,178L929,231L1003,247Z" fill="#81bae4" stroke="#81bae4"/><path d="M964,178L1003,247L1010,157Z" fill="#88bde4" stroke="#88bde4"/><path d="M1010,157L1003,247L1103,160Z" fill="#85bce3" stroke="#85bce3"/><path d="M1103,160L1003,247L1101,257Z" fill="#74b5e0" stroke="#74b5e0"/><path d="M1103,160L1101,257L1149,247Z" fill="#6fb3df" stroke="#6fb3df"/><path d="M1103,160L1149,247L1173,188Z" fill="#75b5e0" stroke="#75b5e0"/><path d="M1173,188L1149,247L1213,253Z" fill="#63aedd" stroke="#63aedd"/><path d="M1173,188L1213,253L1221,182Z" fill="#6ab1de" stroke="#6ab1de"/><path d="M1221,182L1213,253L1300,226Z" fill="#60addc" stroke="#60addc"/><path d="M1221,182L1300,226L1304,157Z" fill="#6ab1dd" stroke="#6ab1dd"/><path d="M1304,157L1300,226L1358,178Z" fill="#67aeda" stroke="#67aeda"/><path d="M1358,178L1300,226L1351,236Z" fill="#5ca8d7" stroke="#5ca8d7"/><path d="M1358,178L1351,236L1416,184Z" fill="#5fa7d5" stroke="#5fa7d5"/><path d="M1416,184L1351,236L1451,252Z" fill="#53a1d1" stroke="#53a1d1"/><path d="M1416,184L1451,252L1492,193Z" fill="#56a0cf" stroke="#56a0cf"/><path d="M1492,193L1451,252L1525,261Z" fill="#4798c9" stroke="#4798c9"/><path d="M1492,193L1525,261L1577,247Z" fill="#4695c7" stroke="#4695c7"/><path d="M1492,193L1577,247L1590,163Z" fill="#5499c7" stroke="#5499c7"/><path d="M1590,163L1577,247L1635,182Z" fill="#5296c4" stroke="#5296c4"/><path d="M1635,182L1577,247L1633,248Z" fill="#4690c1" stroke="#4690c1"/><path d="M1635,182L1633,248L1713,230Z" fill="#478ebe" stroke="#478ebe"/><path d="M1635,182L1713,230L1710,171Z" fill="#5190bd" stroke="#5190bd"/><path d="M1710,171L1713,230L1796,184Z" fill="#518bb9" stroke="#518bb9"/><path d="M1796,184L1713,230L1801,242Z" fill="#4885b6" stroke="#4885b6"/><path d="M1796,184L1801,242L1839,242Z" fill="#4682b2" stroke="#4682b2"/><path d="M1796,184L1839,242L1870,172Z" fill="#4f83b2" stroke="#4f83b2"/><path d="M1870,172L1839,242L1917,244Z" fill="#477dae" stroke="#477dae"/><path d="M1870,172L1917,244L1917,178Z" fill="#507ead" stroke="#507ead"/><path d="M1917,178L1917,244L2011,234Z" fill="#4878a8" stroke="#4878a8"/><path d="M1917,178L2011,234L2001,172Z" fill="#5179a7" stroke="#5179a7"/><path d="M-36,252L-50,330L44,331Z" fill="#92c9eb" stroke="#92c9eb"/><path d="M-36,252L44,331L42,232Z" fill="#a1d0f0" stroke="#a1d0f0"/><path d="M42,232L44,331L118,262Z" fill="#9dcdef" stroke="#9dcdef"/><path d="M118,262L44,331L122,302Z" fill="#8ec6ea" stroke="#8ec6ea"/><path d="M118,262L122,302L158,325Z" fill="#8dc5ea" stroke="#8dc5ea"/><path d="M118,262L158,325L180,230Z" fill="#9acaec" stroke="#9acaec"/><path d="M180,230L158,325L241,316Z" fill="#8dc4e9" stroke="#8dc4e9"/><path d="M180,230L241,316L230,235Z" fill="#9ecaec" stroke="#9ecaec"/><path d="M230,235L241,316L299,243Z" fill="#99c7eb" stroke="#99c7eb"/><path d="M299,243L241,316L310,302Z" fill="#8bc1e7" stroke="#8bc1e7"/><path d="M299,243L310,302L374,242Z" fill="#97c5ea" stroke="#97c5ea"/><path d="M374,242L310,302L402,326Z" fill="#84bde5" stroke="#84bde5"/><path d="M374,242L402,326L464,234Z" fill="#8ec1e8" stroke="#8ec1e8"/><path d="M464,234L402,326L464,321Z" fill="#7dbae4" stroke="#7dbae4"/><path d="M464,234L464,321L532,254Z" fill="#88bee6" stroke="#88bee6"/><path d="M532,254L464,321L531,318Z" fill="#76b7e2" stroke="#76b7e2"/><path d="M532,254L531,318L579,322Z" fill="#74b6e1" stroke="#74b6e1"/><path d="M532,254L579,322L582,229Z" fill="#84bce5" stroke="#84bce5"/><path d="M582,229L579,322L659,261Z" fill="#7fbae4" stroke="#7fbae4"/><path d="M659,261L579,322L654,332Z" fill="#6db0dd" stroke="#6db0dd"/><path d="M659,261L654,332L729,298Z" fill="#6bb1df" stroke="#6bb1df"/><path d="M659,261L729,298L737,252Z" fill="#78b7e2" stroke="#78b7e2"/><path d="M737,252L729,298L813,251Z" fill="#76b6e2" stroke="#76b6e2"/><path d="M813,251L729,298L822,335Z" fill="#64afdd" stroke="#64afdd"/><path d="M813,251L822,335L885,304Z" fill="#5faddc" stroke="#5faddc"/><path d="M813,251L885,304L881,250Z" fill="#6eb2df" stroke="#6eb2df"/><path d="M881,250L885,304L925,296Z" fill="#62aedc" stroke="#62aedc"/><path d="M881,250L925,296L929,231Z" fill="#6fb3e0" stroke="#6fb3e0"/><path d="M929,231L925,296L1003,247Z" fill="#6cb2df" stroke="#6cb2df"/><path d="M1003,247L925,296L1011,302Z" fill="#5cabdb" stroke="#5cabdb"/><path d="M1003,247L1011,302L1101,257Z" fill="#5dacdb" stroke="#5dacdb"/><path d="M1101,257L1011,302L1076,316Z" fill="#4da5d8" stroke="#4da5d8"/><path d="M1101,257L1076,316L1166,322Z" fill="#43a1d5" stroke="#43a1d5"/><path d="M1101,257L1166,322L1149,247Z" fill="#4da6d8" stroke="#4da6d8"/><path d="M1149,247L1166,322L1213,253Z" fill="#4aa4d7" stroke="#4aa4d7"/><path d="M1213,253L1166,322L1209,320Z" fill="#399ed3" stroke="#399ed3"/><path d="M1213,253L1209,320L1294,334Z" fill="#339bd1" stroke="#339bd1"/><path d="M1213,253L1294,334L1300,226Z" fill="#41a1d5" stroke="#41a1d5"/><path d="M1300,226L1294,334L1351,236Z" fill="#419fd3" stroke="#419fd3"/><path d="M1351,236L1294,334L1366,318Z" fill="#2e96cd" stroke="#2e96cd"/><path d="M1351,236L1366,318L1451,252Z" fill="#3b98cc" stroke="#3b98cc"/><path d="M1451,252L1366,318L1429,321Z" fill="#2990c7" stroke="#2990c7"/><path d="M1451,252L1429,321L1512,323Z" fill="#258bc3" stroke="#258bc3"/><path d="M1451,252L1512,323L1525,261Z" fill="#2e8dc3" stroke="#2e8dc3"/><path d="M1525,261L1512,323L1586,295Z" fill="#2387be" stroke="#2387be"/><path d="M1525,261L1586,295L1577,247Z" fill="#318bbf" stroke="#318bbf"/><path d="M1577,247L1586,295L1633,248Z" fill="#3189bd" stroke="#3189bd"/><path d="M1633,248L1586,295L1655,331Z" fill="#1f81b7" stroke="#1f81b7"/><path d="M1633,248L1655,331L1713,230Z" fill="#2b82b7" stroke="#2b82b7"/><path d="M1713,230L1655,331L1713,335Z" fill="#1a79b1" stroke="#1a79b1"/><path d="M1713,230L1713,335L1799,310Z" fill="#1e77ae" stroke="#1e77ae"/><path d="M1713,230L1799,310L1801,242Z" fill="#307cb0" stroke="#307cb0"/><path d="M1801,242L1799,310L1839,242Z" fill="#2e78ac" stroke="#2e78ac"/><path d="M1839,242L1799,310L1846,317Z" fill="#1f71a8" stroke="#1f71a8"/><path d="M1839,242L1846,317L1917,244Z" fill="#2c73a8" stroke="#2c73a8"/><path d="M1917,244L1846,317L1935,319Z" fill="#1d6ba2" stroke="#1d6ba2"/><path d="M1917,244L1935,319L1976,313Z" fill="#1e679f" stroke="#1e679f"/><path d="M1917,244L1976,313L2011,234Z" fill="#2e6ca1" stroke="#2e6ca1"/><path d="M2011,234L1976,313L1992,382Z" fill="#195e96" stroke="#195e96"/><path d="M2011,234L1992,382L2009,472Z" fill="#134880" stroke="#134880"/><path d="M-50,330L-55,373L19,373Z" fill="#8db4d6" stroke="#8db4d6"/><path d="M-50,330L19,373L44,331Z" fill="#8db9db" stroke="#8db9db"/><path d="M44,331L19,373L107,396Z" fill="#88add1" stroke="#88add1"/><path d="M44,331L107,396L122,302Z" fill="#89b5d9" stroke="#89b5d9"/><path d="M122,302L107,396L158,325Z" fill="#87b4d9" stroke="#87b4d9"/><path d="M158,325L107,396L159,404Z" fill="#83a6cb" stroke="#83a6cb"/><path d="M158,325L159,404L232,378Z" fill="#81a6cd" stroke="#81a6cd"/><path d="M158,325L232,378L241,316Z" fill="#83b1d7" stroke="#83b1d7"/><path d="M241,316L232,378L312,371Z" fill="#7fa8d0" stroke="#7fa8d0"/><path d="M241,316L312,371L310,302Z" fill="#80b2da" stroke="#80b2da"/><path d="M310,302L312,371L402,326Z" fill="#7daed7" stroke="#7daed7"/><path d="M402,326L312,371L374,393Z" fill="#78a1cb" stroke="#78a1cb"/><path d="M402,326L374,393L443,389Z" fill="#759ec8" stroke="#759ec8"/><path d="M402,326L443,389L464,321Z" fill="#75a6d1" stroke="#75a6d1"/><path d="M464,321L443,389L544,393Z" fill="#709cc7" stroke="#709cc7"/><path d="M464,321L544,393L531,318Z" fill="#70a4d0" stroke="#70a4d0"/><path d="M531,318L544,393L579,322Z" fill="#6ea3cf" stroke="#6ea3cf"/><path d="M579,322L544,393L613,394Z" fill="#6998c5" stroke="#6998c5"/><path d="M579,322L613,394L654,332Z" fill="#699fcc" stroke="#699fcc"/><path d="M654,332L613,394L645,399Z" fill="#6594c1" stroke="#6594c1"/><path d="M654,332L645,399L738,374Z" fill="#6296c4" stroke="#6296c4"/><path d="M654,332L738,374L729,298Z" fill="#64a2d0" stroke="#64a2d0"/><path d="M729,298L738,374L822,335Z" fill="#5fa0ce" stroke="#5fa0ce"/><path d="M822,335L738,374L815,402Z" fill="#5991c0" stroke="#5991c0"/><path d="M822,335L815,402L856,373Z" fill="#5690c0" stroke="#5690c0"/><path d="M822,335L856,373L885,304Z" fill="#589dcc" stroke="#589dcc"/><path d="M885,304L856,373L956,385Z" fill="#5394c5" stroke="#5394c5"/><path d="M885,304L956,385L925,296Z" fill="#549ece" stroke="#549ece"/><path d="M925,296L956,385L1011,302Z" fill="#509dce" stroke="#509dce"/><path d="M1011,302L956,385L1030,380Z" fill="#4990c2" stroke="#4990c2"/><path d="M1011,302L1030,380L1076,316Z" fill="#4797ca" stroke="#4797ca"/><path d="M1076,316L1030,380L1082,401Z" fill="#4189bd" stroke="#4189bd"/><path d="M1076,316L1082,401L1171,368Z" fill="#3c88bd" stroke="#3c88bd"/><path d="M1076,316L1171,368L1166,322Z" fill="#3b92c7" stroke="#3b92c7"/><path d="M1166,322L1171,368L1209,320Z" fill="#368fc5" stroke="#368fc5"/><path d="M1209,320L1171,368L1223,385Z" fill="#3286bc" stroke="#3286bc"/><path d="M1209,320L1223,385L1294,334Z" fill="#2f88bf" stroke="#2f88bf"/><path d="M1294,334L1223,385L1313,376Z" fill="#297fb7" stroke="#297fb7"/><path d="M1294,334L1313,376L1366,318Z" fill="#2885bc" stroke="#2885bc"/><path d="M1366,318L1313,376L1369,404Z" fill="#247ab1" stroke="#247ab1"/><path d="M1366,318L1369,404L1425,386Z" fill="#2175ad" stroke="#2175ad"/><path d="M1366,318L1425,386L1429,321Z" fill="#237fb7" stroke="#237fb7"/><path d="M1429,321L1425,386L1512,323Z" fill="#207bb2" stroke="#207bb2"/><path d="M1512,323L1425,386L1523,372Z" fill="#1c71a9" stroke="#1c71a9"/><path d="M1512,323L1523,372L1586,295Z" fill="#1c79b1" stroke="#1c79b1"/><path d="M1586,295L1523,372L1581,394Z" fill="#186ea6" stroke="#186ea6"/><path d="M1586,295L1581,394L1635,380Z" fill="#166aa2" stroke="#166aa2"/><path d="M1586,295L1635,380L1655,331Z" fill="#1670a8" stroke="#1670a8"/><path d="M1655,331L1635,380L1701,379Z" fill="#13629a" stroke="#13629a"/><path d="M1655,331L1701,379L1713,335Z" fill="#15669e" stroke="#15669e"/><path d="M1713,335L1701,379L1799,371Z" fill="#135d95" stroke="#135d95"/><path d="M1713,335L1799,371L1799,310Z" fill="#16639c" stroke="#16639c"/><path d="M1799,310L1799,371L1846,317Z" fill="#16629b" stroke="#16629b"/><path d="M1846,317L1799,371L1874,375Z" fill="#145890" stroke="#145890"/><path d="M1846,317L1874,375L1935,319Z" fill="#165b93" stroke="#165b93"/><path d="M1935,319L1874,375L1918,389Z" fill="#135088" stroke="#135088"/><path d="M1935,319L1918,389L1992,382Z" fill="#134c85" stroke="#134c85"/><path d="M1935,319L1992,382L1976,313Z" fill="#16558d" stroke="#16558d"/><path d="M-55,373L-47,512L-16,448Z" fill="#8593b5" stroke="#8593b5"/><path d="M-55,373L-16,448L19,373Z" fill="#89a4c6" stroke="#89a4c6"/><path d="M19,373L-16,448L24,446Z" fill="#8599bc" stroke="#8599bc"/><path d="M19,373L24,446L107,396Z" fill="#849ec2" stroke="#849ec2"/><path d="M107,396L24,446L113,447Z" fill="#8093b7" stroke="#8093b7"/><path d="M107,396L113,447L159,404Z" fill="#7f97bc" stroke="#7f97bc"/><path d="M159,404L113,447L173,465Z" fill="#7c8cb2" stroke="#7c8cb2"/><path d="M159,404L173,465L255,440Z" fill="#7a8bb2" stroke="#7a8bb2"/><path d="M159,404L255,440L232,378Z" fill="#7c95bd" stroke="#7c95bd"/><path d="M232,378L255,440L312,371Z" fill="#7a98c0" stroke="#7a98c0"/><path d="M312,371L255,440L312,467Z" fill="#768ab3" stroke="#768ab3"/><path d="M312,371L312,467L375,436Z" fill="#738ab3" stroke="#738ab3"/><path d="M312,371L375,436L374,393Z" fill="#7593bd" stroke="#7593bd"/><path d="M374,393L375,436L443,389Z" fill="#718fb9" stroke="#718fb9"/><path d="M443,389L375,436L465,471Z" fill="#6d84ae" stroke="#6d84ae"/><path d="M443,389L465,471L544,393Z" fill="#6a88b3" stroke="#6a88b3"/><path d="M544,393L465,471L514,474Z" fill="#667ba8" stroke="#667ba8"/><path d="M544,393L514,474L598,453Z" fill="#647da9" stroke="#647da9"/><path d="M544,393L598,453L613,394Z" fill="#6486b3" stroke="#6486b3"/><path d="M613,394L598,453L645,399Z" fill="#6284b2" stroke="#6284b2"/><path d="M645,399L598,453L682,473Z" fill="#5e79a7" stroke="#5e79a7"/><path d="M645,399L682,473L738,374Z" fill="#5c82b1" stroke="#5c82b1"/><path d="M738,374L682,473L748,457Z" fill="#5879a8" stroke="#5879a8"/><path d="M738,374L748,457L792,447Z" fill="#567cab" stroke="#567cab"/><path d="M738,374L792,447L815,402Z" fill="#5682b2" stroke="#5682b2"/><path d="M815,402L792,447L859,437Z" fill="#5179a9" stroke="#5179a9"/><path d="M815,402L859,437L856,373Z" fill="#5282b2" stroke="#5282b2"/><path d="M856,373L859,437L956,385Z" fill="#4f83b4" stroke="#4f83b4"/><path d="M956,385L859,437L960,456Z" fill="#4976a8" stroke="#4976a8"/><path d="M956,385L960,456L1019,458Z" fill="#4372a4" stroke="#4372a4"/><path d="M956,385L1019,458L1030,380Z" fill="#437bae" stroke="#437bae"/><path d="M1030,380L1019,458L1082,401Z" fill="#3e77aa" stroke="#3e77aa"/><path d="M1082,401L1019,458L1093,452Z" fill="#396da0" stroke="#396da0"/><path d="M1082,401L1093,452L1166,460Z" fill="#336a9f" stroke="#336a9f"/><path d="M1082,401L1166,460L1171,368Z" fill="#3374a9" stroke="#3374a9"/><path d="M1171,368L1166,460L1223,385Z" fill="#2f74aa" stroke="#2f74aa"/><path d="M1223,385L1166,460L1218,464Z" fill="#2a669d" stroke="#2a669d"/><path d="M1223,385L1218,464L1302,460Z" fill="#24649c" stroke="#24649c"/><path d="M1223,385L1302,460L1313,376Z" fill="#246fa6" stroke="#246fa6"/><path d="M1313,376L1302,460L1346,442Z" fill="#1f649c" stroke="#1f649c"/><path d="M1313,376L1346,442L1369,404Z" fill="#2069a1" stroke="#2069a1"/><path d="M1369,404L1346,442L1455,453Z" fill="#1a5c94" stroke="#1a5c94"/><path d="M1369,404L1455,453L1425,386Z" fill="#1a6199" stroke="#1a6199"/><path d="M1425,386L1455,453L1523,372Z" fill="#196199" stroke="#196199"/><path d="M1523,372L1455,453L1493,470Z" fill="#14548d" stroke="#14548d"/><path d="M1523,372L1493,470L1581,394Z" fill="#145991" stroke="#145991"/><path d="M1581,394L1493,470L1592,454Z" fill="#0f4c85" stroke="#0f4c85"/><path d="M1581,394L1592,454L1632,445Z" fill="#0e4c84" stroke="#0e4c84"/><path d="M1581,394L1632,445L1635,380Z" fill="#0f558d" stroke="#0f558d"/><path d="M1635,380L1632,445L1701,379Z" fill="#0f538c" stroke="#0f538c"/><path d="M1701,379L1632,445L1713,462Z" fill="#0c467f" stroke="#0c467f"/><path d="M1701,379L1713,462L1787,436Z" fill="#0c447c" stroke="#0c447c"/><path d="M1701,379L1787,436L1799,371Z" fill="#0f4e86" stroke="#0f4e86"/><path d="M1799,371L1787,436L1856,446Z" fill="#0d4179" stroke="#0d4179"/><path d="M1799,371L1856,446L1874,375Z" fill="#0f467f" stroke="#0f467f"/><path d="M1874,375L1856,446L1918,389Z" fill="#0f417a" stroke="#0f417a"/><path d="M1918,389L1856,446L1922,456Z" fill="#0c356e" stroke="#0c356e"/><path d="M1918,389L1922,456L1992,382Z" fill="#0e3a73" stroke="#0e3a73"/><path d="M1992,382L1922,456L2009,472Z" fill="#0b2d66" stroke="#0b2d66"/><path d="M-16,448L-47,512L25,508Z" fill="#7e7fa2" stroke="#7e7fa2"/><path d="M-16,448L25,508L24,446Z" fill="#8087aa" stroke="#8087aa"/><path d="M24,446L25,508L113,447Z" fill="#7d85a9" stroke="#7d85a9"/><path d="M113,447L25,508L98,542Z" fill="#79779c" stroke="#79779c"/><path d="M113,447L98,542L173,465Z" fill="#787aa1" stroke="#787aa1"/><path d="M173,465L98,542L195,542Z" fill="#737093" stroke="#737093"/><path d="M173,465L195,542L241,515Z" fill="#726e96" stroke="#726e96"/><path d="M173,465L241,515L255,440Z" fill="#747ba3" stroke="#747ba3"/><path d="M255,440L241,515L312,467Z" fill="#7279a1" stroke="#7279a1"/><path d="M312,467L241,515L319,532Z" fill="#6d6b94" stroke="#6d6b94"/><path d="M312,467L319,532L386,525Z" fill="#6a6892" stroke="#6a6892"/><path d="M312,467L386,525L375,436Z" fill="#6c749f" stroke="#6c749f"/><path d="M375,436L386,525L446,509Z" fill="#686d98" stroke="#686d98"/><path d="M375,436L446,509L465,471Z" fill="#68749f" stroke="#68749f"/><path d="M465,471L446,509L507,523Z" fill="#626693" stroke="#626693"/><path d="M465,471L507,523L514,474Z" fill="#626b97" stroke="#626b97"/><path d="M514,474L507,523L582,513Z" fill="#5e6491" stroke="#5e6491"/><path d="M514,474L582,513L598,453Z" fill="#5e6c9a" stroke="#5e6c9a"/><path d="M598,453L582,513L654,514Z" fill="#5a6593" stroke="#5a6593"/><path d="M598,453L654,514L682,473Z" fill="#596a98" stroke="#596a98"/><path d="M682,473L654,514L725,517Z" fill="#54608f" stroke="#54608f"/><path d="M682,473L725,517L748,457Z" fill="#536696" stroke="#536696"/><path d="M748,457L725,517L811,516Z" fill="#4e5f8f" stroke="#4e5f8f"/><path d="M748,457L811,516L792,447Z" fill="#4f6898" stroke="#4f6898"/><path d="M792,447L811,516L859,437Z" fill="#4d6a9a" stroke="#4d6a9a"/><path d="M859,437L811,516L894,536Z" fill="#475d8e" stroke="#475d8e"/><path d="M859,437L894,536L960,456Z" fill="#456394" stroke="#456394"/><path d="M960,456L894,536L937,528Z" fill="#405688" stroke="#405688"/><path d="M960,456L937,528L1008,511Z" fill="#3d588b" stroke="#3d588b"/><path d="M960,456L1008,511L1019,458Z" fill="#3d6093" stroke="#3d6093"/><path d="M1019,458L1008,511L1072,508Z" fill="#37578b" stroke="#37578b"/><path d="M1019,458L1072,508L1093,452Z" fill="#365e92" stroke="#365e92"/><path d="M1093,452L1072,508L1162,507Z" fill="#2e558a" stroke="#2e558a"/><path d="M1093,452L1162,507L1166,460Z" fill="#2d5b90" stroke="#2d5b90"/><path d="M1166,460L1162,507L1218,464Z" fill="#27578d" stroke="#27578d"/><path d="M1218,464L1162,507L1233,528Z" fill="#224d84" stroke="#224d84"/><path d="M1218,464L1233,528L1302,460Z" fill="#1f5189" stroke="#1f5189"/><path d="M1302,460L1233,528L1307,543Z" fill="#19467e" stroke="#19467e"/><path d="M1302,460L1307,543L1359,507Z" fill="#17447d" stroke="#17447d"/><path d="M1302,460L1359,507L1346,442Z" fill="#1a5189" stroke="#1a5189"/><path d="M1346,442L1359,507L1455,453Z" fill="#174e87" stroke="#174e87"/><path d="M1455,453L1359,507L1422,524Z" fill="#12417a" stroke="#12417a"/><path d="M1455,453L1422,524L1492,514Z" fill="#103d75" stroke="#103d75"/><path d="M1455,453L1492,514L1493,470Z" fill="#10427a" stroke="#10427a"/><path d="M1493,470L1492,514L1567,511Z" fill="#0b3770" stroke="#0b3770"/><path d="M1493,470L1567,511L1592,454Z" fill="#0c3d76" stroke="#0c3d76"/><path d="M1592,454L1567,511L1626,517Z" fill="#07336c" stroke="#07336c"/><path d="M1592,454L1626,517L1632,445Z" fill="#083a73" stroke="#083a73"/><path d="M1632,445L1626,517L1699,512Z" fill="#053069" stroke="#053069"/><path d="M1632,445L1699,512L1713,462Z" fill="#07356e" stroke="#07356e"/><path d="M1713,462L1699,512L1800,506Z" fill="#052861" stroke="#052861"/><path d="M1713,462L1800,506L1787,436Z" fill="#083069" stroke="#083069"/><path d="M1787,436L1800,506L1856,446Z" fill="#082f67" stroke="#082f67"/><path d="M1856,446L1800,506L1862,544Z" fill="#041e57" stroke="#041e57"/><path d="M1856,446L1862,544L1912,510Z" fill="#041b54" stroke="#041b54"/><path d="M1856,446L1912,510L1922,456Z" fill="#07255e" stroke="#07255e"/><path d="M1922,456L1912,510L1985,508Z" fill="#051953" stroke="#051953"/><path d="M1922,456L1985,508L2009,472Z" fill="#071c55" stroke="#071c55"/><path d="M-47,512L98,542L25,508Z" fill="#797695" stroke="#797695"/><path d="M98,542L1862,544L1307,543Z" fill="#2c4f76" stroke="#2c4f76"/><path d="M98,542L1307,543L195,542Z" fill="#5a6281" stroke="#5a6281"/><path d="M195,542L1307,543L894,536Z" fill="#475a7d" stroke="#475a7d"/><path d="M195,542L894,536L319,532Z" fill="#5e6485" stroke="#5e6485"/><path d="M195,542L319,532L241,515Z" fill="#6d6c8b" stroke="#6d6c8b"/><path d="M319,532L894,536L507,523Z" fill="#596185" stroke="#596185"/><path d="M319,532L507,523L386,525Z" fill="#64668a" stroke="#64668a"/><path d="M386,525L507,523L446,509Z" fill="#62658c" stroke="#62658c"/><path d="M507,523L894,536L725,517Z" fill="#4f5d85" stroke="#4f5d85"/><path d="M507,523L725,517L654,514Z" fill="#565f89" stroke="#565f89"/><path d="M507,523L654,514L582,513Z" fill="#5a618b" stroke="#5a618b"/><path d="M725,517L894,536L811,516Z" fill="#475984" stroke="#475984"/><path d="M894,536L1307,543L1233,528Z" fill="#254c77" stroke="#254c77"/><path d="M894,536L1233,528L937,528Z" fill="#34527d" stroke="#34527d"/><path d="M937,528L1233,528L1072,508Z" fill="#2e4f7f" stroke="#2e4f7f"/><path d="M937,528L1072,508L1008,511Z" fill="#385383" stroke="#385383"/><path d="M1072,508L1233,528L1162,507Z" fill="#264c7f" stroke="#264c7f"/><path d="M1307,543L1862,544L1626,517Z" fill="#032d5b" stroke="#032d5b"/><path d="M1307,543L1626,517L1422,524Z" fill="#0c396a" stroke="#0c396a"/><path d="M1307,543L1422,524L1359,507Z" fill="#124071" stroke="#124071"/><path d="M1422,524L1626,517L1492,514Z" fill="#0a3468" stroke="#0a3468"/><path d="M1492,514L1626,517L1567,511Z" fill="#073067" stroke="#073067"/><path d="M1626,517L1862,544L1699,512Z" fill="#022356" stroke="#022356"/><path d="M1699,512L1862,544L1800,506Z" fill="#021f52" stroke="#021f52"/><path d="M1862,544L1985,508L1912,510Z" fill="#021448" stroke="#021448"/></g></svg>